<svg version="1.1" xmlns="http://www.w3.org/2000/svg" viewBox="0 0 1401.2592655892784 552.1999999999999" width="1401.2592655892784" height="552.1999999999999" class="excalidraw-svg">
  <!-- svg-source:excalidraw -->
  
  <defs>
    <style class="style-fonts">
      
    </style>
    
  </defs>
  <rect x="0" y="0" width="1401.2592655892784" height="552.1999999999999" fill="#ffffff"></rect><g stroke-linecap="round" transform="translate(68.59134556707181 74.6) rotate(0 300 100)"><path d="M32 0 C223.6 1.71, 416.09 1.19, 568 0 M32 0 C187.86 -1.51, 343.53 -1.51, 568 0 M568 0 C589.36 -1.34, 600.21 9.94, 600 32 M568 0 C588.45 -2.2, 600.95 9.18, 600 32 M600 32 C600.33 86.74, 598.88 139.89, 600 168 M600 32 C601.54 76.79, 600.35 120.71, 600 168 M600 168 C598.39 188.95, 587.84 198.44, 568 200 M600 168 C600.18 188.33, 590.42 199.7, 568 200 M568 200 C409.43 198.25, 250.32 198.07, 32 200 M568 200 C394.3 202, 220.77 201.92, 32 200 M32 200 C10.33 198.86, 1.76 188.38, 0 168 M32 200 C12.06 201.24, 1.85 188.58, 0 168 M0 168 C-1.08 123.31, -0.49 81.65, 0 32 M0 168 C-0.23 119.41, -0.3 71.5, 0 32 M0 32 C0.69 12.54, 8.69 1.18, 32 0 M0 32 C-1.11 9.82, 12.3 0.8, 32 0" stroke="#1e1e1e" stroke-width="2" fill="none"></path></g><g transform="translate(308.5913455670718 154.6) rotate(0 47.0654296875 16.099999999999994)"><text x="0" y="23.660546874999998" font-family="Helvetica, Segoe UI Emoji" font-size="28px" fill="#1e1e1e" text-anchor="start" style="white-space: pre;" direction="ltr" dominant-baseline="alphabetic">Party A</text></g><g stroke-linecap="round" transform="translate(68.59134556707181 274.6) rotate(0 300 100)"><path d="M32 0 C170.97 1.9, 311 2.62, 568 0 M32 0 C209.82 1.17, 387.36 1.5, 568 0 M568 0 C587.88 -1.49, 599.87 10.63, 600 32 M568 0 C589.83 1.87, 599.24 8.8, 600 32 M600 32 C601.18 82.36, 599.84 134.23, 600 168 M600 32 C600.84 78.38, 599.9 122.68, 600 168 M600 168 C600.51 189.09, 587.7 201.78, 568 200 M600 168 C600.32 187.55, 588.72 198.65, 568 200 M568 200 C424.78 198.81, 282.39 197.8, 32 200 M568 200 C441.7 202.06, 314.62 201.97, 32 200 M32 200 C12.4 199.76, -0.79 187.43, 0 168 M32 200 C12.33 198.93, -0.15 189.13, 0 168 M0 168 C1.98 123.98, 0.84 77.93, 0 32 M0 168 C-0.11 124.95, -0.38 84.23, 0 32 M0 32 C1.75 9.85, 10.07 1.94, 32 0 M0 32 C-0.3 12.4, 11.33 1.13, 32 0" stroke="#1e1e1e" stroke-width="2" fill="none"></path></g><g transform="translate(308.5913455670718 354.6) rotate(0 46.5654296875 16.099999999999994)"><text x="0" y="23.660546874999998" font-family="Helvetica, Segoe UI Emoji" font-size="28px" fill="#1e1e1e" text-anchor="start" style="white-space: pre;" direction="ltr" dominant-baseline="alphabetic">Party B</text></g><g stroke-linecap="round"><g transform="translate(48.59134556707181 494.6) rotate(0 0 -213.33333333333334)"><path d="M-0.28 0.38 C-0.24 -70.78, 0.75 -356.48, 0.67 -427.8 M1.77 -0.46 C1.67 -71.45, 0.09 -355.83, 0.08 -426.86" stroke="#1e1e1e" stroke-width="2" fill="none"></path></g><g transform="translate(48.59134556707181 494.6) rotate(0 0 -213.33333333333334)"><path d="M8.7 -403.39 C6.6 -410.17, 1.18 -420.45, 0.08 -426.86 M8.7 -403.39 C6.92 -409.21, 4.71 -413.24, 0.08 -426.86" stroke="#1e1e1e" stroke-width="2" fill="none"></path></g><g transform="translate(48.59134556707181 494.6) rotate(0 0 -213.33333333333334)"><path d="M-8.4 -403.34 C-4.75 -410.1, -4.44 -420.4, 0.08 -426.86 M-8.4 -403.34 C-6.25 -409.29, -4.54 -413.33, 0.08 -426.86" stroke="#1e1e1e" stroke-width="2" fill="none"></path></g></g><mask></mask><g stroke-linecap="round"><g transform="translate(48.59134556707181 494.6) rotate(0 310 0)"><path d="M-0.1 -0.43 C103.23 -0.4, 517 0.57, 620.5 0.68 M-1.61 -1.7 C101.55 -2.07, 516.11 -1.65, 619.82 -1.08" stroke="#1e1e1e" stroke-width="2" fill="none"></path></g><g transform="translate(48.59134556707181 494.6) rotate(0 310 0)"><path d="M596.3 7.4 C603.65 5.34, 613.6 3.1, 619.82 -1.08 M596.3 7.4 C604.14 5.64, 612.23 2.54, 619.82 -1.08" stroke="#1e1e1e" stroke-width="2" fill="none"></path></g><g transform="translate(48.59134556707181 494.6) rotate(0 310 0)"><path d="M596.35 -9.7 C603.76 -5.88, 613.69 -2.22, 619.82 -1.08 M596.35 -9.7 C604.18 -5.96, 612.26 -3.56, 619.82 -1.08" stroke="#1e1e1e" stroke-width="2" fill="none"></path></g></g><mask></mask><g transform="translate(288.5913455670718 510) rotate(0 92.5478515625 16.099999999999994)"><text x="0" y="23.660546874999998" font-family="Helvetica, Segoe UI Emoji" font-size="28px" fill="#1e1e1e" text-anchor="start" style="white-space: pre;" direction="ltr" dominant-baseline="alphabetic">Feature Space</text></g><g transform="translate(148.5913455670718 10) rotate(0 243.1494140625 20.7)"><text x="0" y="30.420703125" font-family="Helvetica, Segoe UI Emoji" font-size="36px" fill="#1e1e1e" text-anchor="start" style="white-space: pre;" direction="ltr" dominant-baseline="alphabetic">Horizontal Federated Learning</text></g><g stroke-linecap="round"><g transform="translate(768.5913455670718 494.6) rotate(0 0 -210)"><path d="M-0.01 -1.01 C-0.14 -70.78, -1.1 -349.75, -1.05 -419.5 M-1.47 1.07 C-1.22 -68.99, 0.92 -350.91, 1.12 -421.36" stroke="#1e1e1e" stroke-width="2" fill="none"></path></g><g transform="translate(768.5913455670718 494.6) rotate(0 0 -210)"><path d="M9.54 -397.82 C5.68 -406.11, 5.86 -410.43, 1.12 -421.36 M9.54 -397.82 C6.67 -405.26, 4.07 -414.29, 1.12 -421.36" stroke="#1e1e1e" stroke-width="2" fill="none"></path></g><g transform="translate(768.5913455670718 494.6) rotate(0 0 -210)"><path d="M-7.56 -397.91 C-6.66 -406.18, -1.73 -410.47, 1.12 -421.36 M-7.56 -397.91 C-4.62 -405.2, -1.4 -414.2, 1.12 -421.36" stroke="#1e1e1e" stroke-width="2" fill="none"></path></g></g><mask></mask><g stroke-linecap="round"><g transform="translate(768.5913455670718 494.6) rotate(0 310.7361439115042 0)"><path d="M0.29 0.48 C104.24 0.26, 519.09 -0.88, 622.67 -0.84 M-1.02 -0.31 C102.97 -0.45, 518.66 0.41, 622.35 0.26" stroke="#1e1e1e" stroke-width="2" fill="none"></path></g><g transform="translate(768.5913455670718 494.6) rotate(0 310.7361439115042 0)"><path d="M598.85 8.8 C604.61 8.92, 607.42 5.56, 622.35 0.26 M598.85 8.8 C607.98 5.42, 616.27 3.43, 622.35 0.26" stroke="#1e1e1e" stroke-width="2" fill="none"></path></g><g transform="translate(768.5913455670718 494.6) rotate(0 310.7361439115042 0)"><path d="M598.86 -8.3 C604.69 -4.55, 607.49 -4.27, 622.35 0.26 M598.86 -8.3 C608.07 -5.49, 616.36 -1.29, 622.35 0.26" stroke="#1e1e1e" stroke-width="2" fill="none"></path></g></g><mask></mask><g transform="translate(1010.0636333900802 510) rotate(0 92.5478515625 16.099999999999994)"><text x="0" y="23.660546874999998" font-family="Helvetica, Segoe UI Emoji" font-size="28px" fill="#1e1e1e" text-anchor="start" style="white-space: pre;" direction="ltr" dominant-baseline="alphabetic">Feature Space</text></g><g transform="translate(870.0636333900802 10) rotate(0 221.1416015625 20.7)"><text x="0" y="30.420703125" font-family="Helvetica, Segoe UI Emoji" font-size="36px" fill="#1e1e1e" text-anchor="start" style="white-space: pre;" direction="ltr" dominant-baseline="alphabetic">Vertical Federated Learning</text></g><g stroke-linecap="round" transform="translate(788.5913455670718 74.6) rotate(0 130 200)"><path d="M32 0 C99.87 0.56, 164.32 0.1, 228 0 M32 0 C74.68 -1.4, 118 0.23, 228 0 M228 0 C248.22 1.5, 261.36 9.93, 260 32 M228 0 C250.24 -0.15, 259.86 11.55, 260 32 M260 32 C260.7 161.82, 261.65 291.79, 260 368 M260 32 C259.07 141.37, 259.15 249.81, 260 368 M260 368 C261.46 390.39, 251.2 401.06, 228 400 M260 368 C260.69 389.35, 249.7 400.13, 228 400 M228 400 C153.17 398.96, 77.5 401.84, 32 400 M228 400 C159.15 401.33, 91.23 400.99, 32 400 M32 400 C11.17 400.84, -0.76 388.1, 0 368 M32 400 C8.92 400.58, -1.47 390.6, 0 368 M0 368 C2.58 267.61, 1.18 164.99, 0 32 M0 368 C-0.88 274.91, -0.43 181.19, 0 32 M0 32 C-1.43 9.74, 10.79 1.7, 32 0 M0 32 C2.09 9.63, 10.46 -0.76, 32 0" stroke="#1e1e1e" stroke-width="2" fill="none"></path></g><g stroke-linecap="round" transform="translate(1048.5913455670718 74.6) rotate(0 120 200)"><path d="M32 0 C85.01 -1.77, 139.16 -2.03, 208 0 M32 0 C97.05 -0.39, 160.85 0.54, 208 0 M208 0 C229.18 -1, 241.45 9.97, 240 32 M208 0 C229.25 1.59, 242 10.1, 240 32 M240 32 C240.69 159.95, 240.67 288.52, 240 368 M240 32 C239.8 134.15, 239.57 237.68, 240 368 M240 368 C238.69 387.98, 228.54 400.58, 208 400 M240 368 C240.45 387.23, 228.5 402.07, 208 400 M208 400 C165.16 401.93, 123.25 400.14, 32 400 M208 400 C158.62 400.9, 107.05 401.25, 32 400 M32 400 C9.55 398.02, 1.69 387.69, 0 368 M32 400 C9.08 397.81, -0.93 389.19, 0 368 M0 368 C1.32 260.59, 0.76 154.29, 0 32 M0 368 C-1.52 264.88, -0.94 161.91, 0 32 M0 32 C-0.18 11.85, 12.65 0.17, 32 0 M0 32 C-2.2 12.44, 10.59 0.36, 32 0" stroke="#1e1e1e" stroke-width="2" fill="none"></path></g><g transform="translate(858.9926183568897 262.72246302029544) rotate(0 47.0654296875 16.099999999999994)"><text x="0" y="23.660546874999998" font-family="Helvetica, Segoe UI Emoji" font-size="28px" fill="#1e1e1e" text-anchor="start" style="white-space: pre;" direction="ltr" dominant-baseline="alphabetic">Party A</text></g><g transform="translate(1108.5913455670718 254.6) rotate(0 46.5654296875 16.099999999999994)"><text x="0" y="23.660546874999998" font-family="Helvetica, Segoe UI Emoji" font-size="28px" fill="#1e1e1e" text-anchor="start" style="white-space: pre;" direction="ltr" dominant-baseline="alphabetic">Party B</text></g><g transform="translate(-64.40012748222887 263.6336490374831) rotate(269.5172389716561 91.2685546875 16.099999999999994)"><text x="0" y="23.660546874999998" font-family="Helvetica, Segoe UI Emoji" font-size="28px" fill="#1e1e1e" text-anchor="start" style="white-space: pre;" direction="ltr" dominant-baseline="alphabetic">Sample Space</text></g><g transform="translate(634.191218084843 249.9009682484215) rotate(269.5172389716561 91.2685546875 16.099999999999994)"><text x="0" y="23.660546874999998" font-family="Helvetica, Segoe UI Emoji" font-size="28px" fill="#1e1e1e" text-anchor="start" style="white-space: pre;" direction="ltr" dominant-baseline="alphabetic">Sample Space</text></g></svg>