<svg version="1.1" xmlns="http://www.w3.org/2000/svg" viewBox="0 0 541.259765625 720" width="541.259765625" height="720" class="excalidraw-svg">
  <!-- svg-source:excalidraw -->
  
  <defs>
    <style class="style-fonts">
      
    </style>
    
  </defs>
  <rect x="0" y="0" width="541.259765625" height="720" fill="#ffffff"></rect><g stroke-linecap="round" transform="translate(50 50) rotate(0 220 120)"><path d="M32 0 C146.95 -1.49, 259.59 -0.51, 408 0 M32 0 C130.01 -1.03, 227.54 -1.53, 408 0 M408 0 C427.48 -1.65, 439.34 9.07, 440 32 M408 0 C428.42 0.72, 437.98 9.48, 440 32 M440 32 C441.41 89.52, 439.61 151.54, 440 208 M440 32 C440.34 100.96, 440.37 167.89, 440 208 M440 208 C439.92 228.44, 429.98 239.16, 408 240 M440 208 C441.55 227.39, 430.42 240.87, 408 240 M408 240 C297.23 241.97, 188.05 241.41, 32 240 M408 240 C264.66 241.49, 121.5 242.15, 32 240 M32 240 C10.6 240.45, 1.23 229.12, 0 208 M32 240 C10.78 240.48, -0.24 230.35, 0 208 M0 208 C0.65 167.03, -0.75 124.57, 0 32 M0 208 C0.45 157.32, 2 108.09, 0 32 M0 32 C0.28 10.47, 12.43 -1.69, 32 0 M0 32 C-0.71 9.41, 9.03 -1.56, 32 0" stroke="#1e1e1e" stroke-width="2" fill="none"></path></g><g transform="translate(110 90) rotate(0 34.3447265625 11.5)"><text x="0" y="16.900390625" font-family="Helvetica, Segoe UI Emoji" font-size="20px" fill="#1e1e1e" text-anchor="start" style="white-space: pre;" direction="ltr" dominant-baseline="alphabetic">Client 1</text></g><g stroke-linecap="round" transform="translate(90 130) rotate(0 60 18)"><path d="M9 0 C46.05 -3.79, 87.17 -0.99, 111 0 C117.34 -3.1, 119.64 4.95, 120 9 C122.86 12.05, 119.82 17, 120 27 C121.56 32.62, 114.32 37.19, 111 36 C81.66 31.59, 61.33 35.63, 9 36 C0.82 33.33, -1.9 30.15, 0 27 C0.08 19.12, -0.94 13.36, 0 9 C3.22 -0.51, 1.99 -0.91, 9 0" stroke="none" stroke-width="0" fill="#ffc9c9"></path><path d="M9 0 C46.65 -0.49, 82.61 1.67, 111 0 M9 0 C36.86 -0.73, 66.3 0.4, 111 0 M111 0 C117.82 0.8, 118.91 2.53, 120 9 M111 0 C119.23 1.55, 119.5 4.05, 120 9 M120 9 C120.82 15.22, 118.99 19.95, 120 27 M120 9 C119.81 14.7, 120.16 20.45, 120 27 M120 27 C121.91 31.36, 117.53 34.31, 111 36 M120 27 C117.82 30.93, 116.41 33.88, 111 36 M111 36 C75.55 36.56, 36.46 37.38, 9 36 M111 36 C75.19 35.12, 39.25 34.42, 9 36 M9 36 C2.87 36.78, 1.29 31.89, 0 27 M9 36 C3.28 34.59, -1.53 30.89, 0 27 M0 27 C-0.67 21.37, 0.43 15.87, 0 9 M0 27 C-0.83 22.1, -0.67 19.25, 0 9 M0 9 C0.2 4.69, 3.05 0.73, 9 0 M0 9 C1.38 4.99, 3.64 0.23, 9 0" stroke="#e03131" stroke-width="2" fill="none"></path></g><g transform="translate(102.9189453125 136.5) rotate(0 47.0810546875 11.5)"><text x="47.0810546875" y="16.900390625" font-family="Helvetica, Segoe UI Emoji" font-size="20px" fill="#1e1e1e" text-anchor="middle" style="white-space: pre;" direction="ltr" dominant-baseline="alphabetic">Input Data</text></g><g stroke-linecap="round" transform="translate(90 170) rotate(0 60 18)"><path d="M9 0 C50.99 -2.86, 86.15 -2.36, 111 0 C115.54 -0.67, 120.96 2.65, 120 9 C118.56 17.76, 123.13 21.54, 120 27 C121.95 32.35, 116.35 33.25, 111 36 C79.79 40, 45.81 33.15, 9 36 C5.79 33.32, 1.01 35.11, 0 27 C-2.98 21.44, 0.41 12.82, 0 9 C3.09 5.43, 4.77 -1.61, 9 0" stroke="none" stroke-width="0" fill="#ffec99"></path><path d="M9 0 C39.74 0.35, 74.13 1.55, 111 0 M9 0 C46.23 -1.22, 82.86 -1.97, 111 0 M111 0 C116.27 1.21, 118.67 4.62, 120 9 M111 0 C116.08 2.11, 118.46 2.41, 120 9 M120 9 C119.94 16.4, 119.58 21.7, 120 27 M120 9 C120.3 15.05, 120.15 21.57, 120 27 M120 27 C121.06 33.26, 118.23 35.47, 111 36 M120 27 C120.3 35.27, 117.46 37.9, 111 36 M111 36 C83.83 34.82, 54.53 36.39, 9 36 M111 36 C91.29 36.86, 68.96 36.8, 9 36 M9 36 C3.75 37.59, 1.53 34.06, 0 27 M9 36 C4.4 34.37, 0.44 33.46, 0 27 M0 27 C-0.32 19.29, -0.85 14.91, 0 9 M0 27 C0.48 20.11, -0.49 14.64, 0 9 M0 9 C1.37 3.66, 2.2 0.48, 9 0 M0 9 C-1.22 4.96, 4.53 -1.06, 9 0" stroke="#f08c00" stroke-width="2" fill="none"></path></g><g stroke-linecap="round" transform="translate(90 210) rotate(0 60 18)"><path d="M9 0 C41.18 0.93, 76.74 -2.79, 111 0 C113.43 0.06, 122.19 3.2, 120 9 C122.62 13.43, 118.23 14.34, 120 27 C120.21 31.89, 117.72 34.23, 111 36 C83.68 36.39, 53.95 34.87, 9 36 C-0.31 39.31, 0.92 35.58, 0 27 C-0.21 20.34, -1.71 11.26, 0 9 C3.21 -0.53, 2.14 -0.66, 9 0" stroke="none" stroke-width="0" fill="#b2f2bb"></path><path d="M9 0 C33.26 1.2, 60.03 -1.02, 111 0 M9 0 C44.05 0.49, 80.4 1.16, 111 0 M111 0 C116.8 1.92, 121.24 2.1, 120 9 M111 0 C115.83 1.16, 122.08 1.77, 120 9 M120 9 C118.59 15.98, 120.4 22.28, 120 27 M120 9 C119.32 16.52, 119.5 22.89, 120 27 M120 27 C121.17 34.15, 118.74 34.29, 111 36 M120 27 C118.09 33.62, 117.49 35.07, 111 36 M111 36 C70.76 35.49, 30.94 35.85, 9 36 M111 36 C74.26 36.7, 36.33 35.45, 9 36 M9 36 C4.21 34.87, 0.42 34.42, 0 27 M9 36 C3.5 38.25, 1.51 32.87, 0 27 M0 27 C-0.19 19.41, 1.81 15.71, 0 9 M0 27 C-0.7 20.9, 0.01 16.17, 0 9 M0 9 C-1.49 1.9, 1.71 0.63, 9 0 M0 9 C-2.06 1.98, 4.71 2.27, 9 0" stroke="#2f9e44" stroke-width="2" fill="none"></path></g><g transform="translate(330 90) rotate(0 34.3447265625 11.5)"><text x="0" y="16.900390625" font-family="Helvetica, Segoe UI Emoji" font-size="20px" fill="#1e1e1e" text-anchor="start" style="white-space: pre;" direction="ltr" dominant-baseline="alphabetic">Client 2</text></g><g stroke-linecap="round" transform="translate(310 130) rotate(0 60 18)"><path d="M9 0 C44.87 -3.91, 79.78 1.81, 111 0 C115.19 -2.56, 122.98 6.11, 120 9 C119.49 18.01, 119.98 23.09, 120 27 C119.97 33.61, 114.63 32.43, 111 36 C78.68 33.82, 50.81 36.95, 9 36 C4.27 35.15, 0.4 33.61, 0 27 C2.83 23.88, -2 19.01, 0 9 C0.09 4.1, 4.49 -0.34, 9 0" stroke="none" stroke-width="0" fill="#ffc9c9"></path><path d="M9 0 C31.35 -1.91, 56.52 0.62, 111 0 M9 0 C34.26 0.83, 58.9 0.85, 111 0 M111 0 C118.96 -1.83, 119.78 2.65, 120 9 M111 0 C119.27 -0.62, 119.36 4.18, 120 9 M120 9 C121.23 14.57, 119.6 17.09, 120 27 M120 9 C120.31 15.41, 120.19 20.58, 120 27 M120 27 C120.23 33.92, 117.08 37.73, 111 36 M120 27 C120.07 33.56, 115.78 37.2, 111 36 M111 36 C86.81 35.22, 61.61 35.84, 9 36 M111 36 C87.47 34.55, 63.04 34.28, 9 36 M9 36 C3.87 36.92, -1.52 34.54, 0 27 M9 36 C1.96 33.72, 1.72 33.62, 0 27 M0 27 C-1.06 20.92, 0.01 14.34, 0 9 M0 27 C-0.77 20.93, -0.33 16.05, 0 9 M0 9 C1.27 3.09, 4.59 1.58, 9 0 M0 9 C0.33 2.76, 3.31 1.27, 9 0" stroke="#e03131" stroke-width="2" fill="none"></path></g><g transform="translate(322.9189453125 136.5) rotate(0 47.0810546875 11.5)"><text x="47.0810546875" y="16.900390625" font-family="Helvetica, Segoe UI Emoji" font-size="20px" fill="#1e1e1e" text-anchor="middle" style="white-space: pre;" direction="ltr" dominant-baseline="alphabetic">Input Data</text></g><g stroke-linecap="round" transform="translate(310 170) rotate(0 60 18)"><path d="M9 0 C31.47 -4.34, 60.55 1.33, 111 0 C119.84 -1.06, 117.46 2.54, 120 9 C119.98 16.17, 117.88 19.02, 120 27 C119.77 29.62, 118.77 33.63, 111 36 C90.41 35.17, 67.68 36.63, 9 36 C-0.47 38.41, -0.85 36.38, 0 27 C0.26 22.29, 1.52 15.29, 0 9 C3.04 2.25, 5.13 2.08, 9 0" stroke="none" stroke-width="0" fill="#ffec99"></path><path d="M9 0 C30.03 -0.35, 52.14 -0.06, 111 0 M9 0 C43.33 -1.21, 75.6 -0.48, 111 0 M111 0 C118.97 -0.54, 119.45 4.02, 120 9 M111 0 C114.96 1.85, 120.62 4.38, 120 9 M120 9 C120.16 17.85, 120.98 23.63, 120 27 M120 9 C120.11 16.39, 120.04 23.74, 120 27 M120 27 C120.06 33.49, 115.94 37.04, 111 36 M120 27 C118.85 31.56, 115.92 37.48, 111 36 M111 36 C80.53 36.42, 51.23 36.16, 9 36 M111 36 C87.28 35.54, 61.93 35.85, 9 36 M9 36 C2.1 34.01, 1.5 33.54, 0 27 M9 36 C3.35 36.46, -1.04 31.7, 0 27 M0 27 C-0.21 23.19, -1.38 15.72, 0 9 M0 27 C0.61 23.39, 0.76 20.41, 0 9 M0 9 C0.29 2.79, 3.27 1.11, 9 0 M0 9 C0.73 1.45, 5.1 1.31, 9 0" stroke="#f08c00" stroke-width="2" fill="none"></path></g><g stroke-linecap="round" transform="translate(310 210) rotate(0 60 18)"><path d="M9 0 C52.47 4.42, 92.83 0.25, 111 0 C114.46 -0.46, 122.44 3.08, 120 9 C117.87 11.43, 119.79 17.25, 120 27 C121.77 30.63, 113.92 35.72, 111 36 C80.67 36.17, 46.07 37.97, 9 36 C2.15 39.38, 0.6 31.02, 0 27 C1.33 21.67, 2.73 16.26, 0 9 C2.13 5.08, 4.93 2.67, 9 0" stroke="none" stroke-width="0" fill="#b2f2bb"></path><path d="M9 0 C42.93 0.33, 79.58 -0.52, 111 0 M9 0 C42.48 0.76, 77.16 0.66, 111 0 M111 0 C116.45 1.02, 118.23 4.61, 120 9 M111 0 C117.62 1.38, 122.26 2.3, 120 9 M120 9 C121.06 15.17, 121.6 20.81, 120 27 M120 9 C120.06 15.88, 120.05 21.42, 120 27 M120 27 C118.94 34.04, 116 34.75, 111 36 M120 27 C118.92 34.48, 116.66 37.81, 111 36 M111 36 C77.19 36.14, 45.33 34.34, 9 36 M111 36 C88.84 37.24, 67.74 35.48, 9 36 M9 36 C4.5 36.54, 0.3 33.4, 0 27 M9 36 C1.96 34.7, -0.53 33.05, 0 27 M0 27 C-1.35 21.61, -1.73 18.41, 0 9 M0 27 C0.6 23.42, 0.02 18.32, 0 9 M0 9 C0.27 4.11, 3.63 -1.35, 9 0 M0 9 C2.1 4.31, 1.58 2, 9 0" stroke="#2f9e44" stroke-width="2" fill="none"></path></g><g stroke-linecap="round" transform="translate(50 310) rotate(0 220 200)"><path d="M32 0 C138.37 -0.2, 245.44 -0.36, 408 0 M32 0 C121.3 2.34, 209.61 2.52, 408 0 M408 0 C428.43 -1.99, 441.5 11.2, 440 32 M408 0 C429.68 0.46, 438.96 9.36, 440 32 M440 32 C439.9 126, 439.03 217.26, 440 368 M440 32 C439.9 100.19, 440.01 168.85, 440 368 M440 368 C440.29 389.12, 429.6 401.11, 408 400 M440 368 C440.73 387.78, 431.43 401.31, 408 400 M408 400 C317.87 401.35, 229.96 403.26, 32 400 M408 400 C265.44 398.8, 123.04 398.47, 32 400 M32 400 C10.65 400.34, -1.32 387.35, 0 368 M32 400 C10.52 397.84, 1.13 387.82, 0 368 M0 368 C0.65 295.67, 0.33 224.2, 0 32 M0 368 C-0.88 299.71, -1.88 231.06, 0 32 M0 32 C0.05 11.28, 11.5 -0.19, 32 0 M0 32 C1.94 10.19, 12.03 1.33, 32 0" stroke="#1e1e1e" stroke-width="2" fill="none"></path></g><g stroke-linecap="round" transform="translate(150 350) rotate(0 120 18)"><path d="M9 0 C61.49 4.04, 115.1 1.77, 231 0 C238.53 -3.34, 239.95 3.54, 240 9 C237.72 17.49, 239.52 17.72, 240 27 C241.53 30.51, 234.71 38.1, 231 36 C143.19 34.86, 58.47 31.67, 9 36 C6.22 32.82, -0.55 33.08, 0 27 C1.36 24.42, -2.54 15.1, 0 9 C-3.59 6.53, 5.67 -2.71, 9 0" stroke="none" stroke-width="0" fill="#b2f2bb"></path><path d="M9 0 C76.8 -1.69, 144.33 -0.55, 231 0 M9 0 C83.11 -2.28, 156.99 -0.91, 231 0 M231 0 C235.99 -1.42, 241.66 4.73, 240 9 M231 0 C238.82 -0.68, 238.38 2.7, 240 9 M240 9 C239.99 15.92, 238.82 20.45, 240 27 M240 9 C239.24 13.51, 239.76 19.58, 240 27 M240 27 C240.71 32.53, 237.22 36.34, 231 36 M240 27 C237.78 34.54, 236.46 38.16, 231 36 M231 36 C160.73 36.14, 91.09 35.45, 9 36 M231 36 C146.13 37.6, 60.91 36.9, 9 36 M9 36 C1.13 35.91, -1.87 33.58, 0 27 M9 36 C1.67 35.25, 1 31.75, 0 27 M0 27 C-1.55 20.4, 1.63 14.5, 0 9 M0 27 C0.41 21, -0.28 15.67, 0 9 M0 9 C0.9 1.11, 1.6 -1.57, 9 0 M0 9 C1.55 3.42, 1.79 -2.16, 9 0" stroke="#2f9e44" stroke-width="2" fill="none"></path></g><g stroke-linecap="round"><g transform="translate(170 250) rotate(0 40 50)"><path d="M-0.06 -1.12 C13.39 15.61, 67.07 82.36, 80.35 99.3" stroke="#1e1e1e" stroke-width="2.5" fill="none" stroke-dasharray="8 10"></path></g><g transform="translate(170 250) rotate(0 40 50)"><path d="M59.03 86.24 C62.85 90.39, 69.38 92.72, 80.35 99.3" stroke="#1e1e1e" stroke-width="2.5" fill="none"></path></g><g transform="translate(170 250) rotate(0 40 50)"><path d="M72.41 75.6 C72.48 82.65, 75.36 87.88, 80.35 99.3" stroke="#1e1e1e" stroke-width="2.5" fill="none"></path></g></g><mask></mask><g stroke-linecap="round"><g transform="translate(370 250) rotate(0 -40 50)"><path d="M0.14 -0.38 C-13.13 16.58, -67.23 84.36, -80.77 101.13" stroke="#1e1e1e" stroke-width="2.5" fill="none" stroke-dasharray="8 10"></path></g><g transform="translate(370 250) rotate(0 -40 50)"><path d="M-72.75 77.45 C-75.17 81.06, -74.3 85.37, -80.77 101.13" stroke="#1e1e1e" stroke-width="2.5" fill="none"></path></g><g transform="translate(370 250) rotate(0 -40 50)"><path d="M-59.41 88.15 C-64.52 89.56, -66.4 91.67, -80.77 101.13" stroke="#1e1e1e" stroke-width="2.5" fill="none"></path></g></g><mask></mask><g stroke-linecap="round" transform="translate(150 390) rotate(0 120 18)"><path d="M9 0 C56.74 1.96, 101.31 1.24, 231 0 C235 2.6, 238.24 5.37, 240 9 C239.78 15.27, 240.88 17.16, 240 27 C241.02 32.62, 235.95 34.37, 231 36 C145.86 34.44, 65.94 36.55, 9 36 C6.4 33.34, 2.3 34.41, 0 27 C-2.69 23.34, -1.31 18.17, 0 9 C1.66 0.65, 1.89 0.94, 9 0" stroke="none" stroke-width="0" fill="#ffec99"></path><path d="M9 0 C52.16 -1.91, 100.1 -2.91, 231 0 M9 0 C71.99 0.96, 135.74 1.6, 231 0 M231 0 C235.38 -1.99, 238.01 4.96, 240 9 M231 0 C238.71 -1.73, 239.55 3.29, 240 9 M240 9 C240.18 14.23, 241.12 23.02, 240 27 M240 9 C239.6 14.47, 239.76 19.43, 240 27 M240 27 C241.21 34.95, 235.51 34.29, 231 36 M240 27 C240.45 32.66, 234.82 34.94, 231 36 M231 36 C182.1 36.16, 135.58 36.18, 9 36 M231 36 C185.02 37.26, 140.4 35.98, 9 36 M9 36 C3.9 36.69, 0.72 34.9, 0 27 M9 36 C3.19 35.91, 0.92 33.03, 0 27 M0 27 C1.19 19.78, -1.47 13.36, 0 9 M0 27 C-0.75 22.62, 0.75 17.86, 0 9 M0 9 C-0.51 1.72, 2.27 -0.15, 9 0 M0 9 C0.77 0.91, 4.66 -0.64, 9 0" stroke="#f08c00" stroke-width="2" fill="none"></path></g><g stroke-linecap="round" transform="translate(170 430) rotate(0 100 18)"><path d="M9 0 C61.12 -0.17, 118.67 -2.24, 191 0 C195.37 2.63, 200.65 3.2, 200 9 C200.2 16.1, 197.42 19.16, 200 27 C201.41 33.05, 196.41 36.2, 191 36 C154.06 36.28, 110.28 33.51, 9 36 C3.94 36.55, -0.19 33.55, 0 27 C-0.85 17.31, 3.16 14.83, 0 9 C-0.2 4.99, 5.37 2.15, 9 0" stroke="none" stroke-width="0" fill="#ffec99"></path><path d="M9 0 C50.85 3.3, 87.27 1.42, 191 0 M9 0 C66.4 0.02, 122.1 0.54, 191 0 M191 0 C198.52 -0.53, 198.09 2.86, 200 9 M191 0 C196.43 1.39, 199.82 4.48, 200 9 M200 9 C198.64 15.84, 199.91 20.27, 200 27 M200 9 C199.94 13.26, 199.83 18.76, 200 27 M200 27 C199.98 31.07, 198.63 36.47, 191 36 M200 27 C197.83 35.16, 196.27 34.75, 191 36 M191 36 C130.11 36.82, 65.35 37.46, 9 36 M191 36 C135.32 37.05, 80.98 35.57, 9 36 M9 36 C2.45 35.39, -1.38 34.64, 0 27 M9 36 C0.77 37.22, 1.61 34.45, 0 27 M0 27 C-0.02 22.66, -1.52 18.42, 0 9 M0 27 C-0.42 22.77, 0.09 17.63, 0 9 M0 9 C-0.65 1.89, 4.44 -0.98, 9 0 M0 9 C1.51 2.98, 0.89 0.58, 9 0" stroke="#f08c00" stroke-width="2" fill="none"></path></g><g stroke-linecap="round" transform="translate(190 470) rotate(0 80 18)"><path d="M9 0 C59.17 -5.08, 114.81 -0.62, 151 0 C156.8 1.99, 162.37 5.15, 160 9 C160.15 14.21, 159.83 14.98, 160 27 C158.95 31.79, 158.93 35.46, 151 36 C114.19 34.55, 80.14 32.7, 9 36 C3.4 36.04, -0.8 34.61, 0 27 C1.31 23.43, 2.81 16.67, 0 9 C0 0.5, 1.78 1.79, 9 0" stroke="none" stroke-width="0" fill="#ffec99"></path><path d="M9 0 C46.69 -2.91, 86.06 -0.51, 151 0 M9 0 C37.68 0.9, 67.78 0.81, 151 0 M151 0 C158.9 0.16, 159.93 3.8, 160 9 M151 0 C157.03 1.5, 160.46 1.05, 160 9 M160 9 C159.44 15.08, 158.69 23.73, 160 27 M160 9 C160.66 12.42, 159.52 15.98, 160 27 M160 27 C159.85 33.67, 155.18 37.45, 151 36 M160 27 C159.36 30.81, 155.5 34.5, 151 36 M151 36 C97.2 35.55, 46.14 35.69, 9 36 M151 36 C99.31 34.72, 47.38 35.06, 9 36 M9 36 C1.39 36.57, -0.21 32.42, 0 27 M9 36 C1.96 37.68, 0.42 33.13, 0 27 M0 27 C0.31 24.66, -1.23 20.07, 0 9 M0 27 C0.05 20.13, 0.49 14.41, 0 9 M0 9 C1.25 3.92, 1.7 -0.62, 9 0 M0 9 C0.6 3.35, 2.88 0.35, 9 0" stroke="#f08c00" stroke-width="2" fill="none"></path></g><g stroke-linecap="round" transform="translate(210 510) rotate(0 60 18)"><path d="M9 0 C36.42 -0.66, 57.49 -3.49, 111 0 C115.78 1.79, 119.05 1.09, 120 9 C120.06 17.74, 121.87 23.5, 120 27 C119.09 30.76, 114.53 32.69, 111 36 C85.89 38.25, 68.77 38.05, 9 36 C3.18 37.46, 0.34 36.59, 0 27 C2.93 23.43, -0.88 17.11, 0 9 C-2.67 1.38, 4.94 3.51, 9 0" stroke="none" stroke-width="0" fill="#ffec99"></path><path d="M9 0 C34.07 1.1, 62.22 -2.25, 111 0 M9 0 C32.86 -0.29, 56.58 -1.31, 111 0 M111 0 C118.44 -0.98, 121.32 2.98, 120 9 M111 0 C114.89 0.58, 120.05 3.63, 120 9 M120 9 C119.66 14.52, 119.04 22.42, 120 27 M120 9 C119.5 14.88, 120.12 21.3, 120 27 M120 27 C118.52 34.28, 117.78 36.03, 111 36 M120 27 C119.62 33.13, 115.05 37.26, 111 36 M111 36 C83.38 35.85, 58.9 36.78, 9 36 M111 36 C80.79 37.21, 50.59 35.63, 9 36 M9 36 C4.92 36.49, -0.11 34.11, 0 27 M9 36 C4.52 37.37, -1.98 33.06, 0 27 M0 27 C-0.11 20.8, -0.53 15.91, 0 9 M0 27 C-0.39 20.41, -0.54 14.06, 0 9 M0 9 C-0.99 1.52, 3.22 0.02, 9 0 M0 9 C-0.51 4.03, 2.89 0.33, 9 0" stroke="#f08c00" stroke-width="2" fill="none"></path></g><g transform="translate(240.0322265625 516.5) rotate(0 29.9677734375 11.5)"><text x="29.9677734375" y="16.900390625" font-family="Helvetica, Segoe UI Emoji" font-size="20px" fill="#1e1e1e" text-anchor="middle" style="white-space: pre;" direction="ltr" dominant-baseline="alphabetic">Labels</text></g><g transform="translate(70 470) rotate(0 41.572265625 16.099999999999998)"><text x="0" y="23.660546874999998" font-family="Helvetica, Segoe UI Emoji" font-size="28px" fill="#1e1e1e" text-anchor="start" style="white-space: pre;" direction="ltr" dominant-baseline="alphabetic">Server</text></g><g transform="translate(10 10) rotate(0 260.6298828125 16.099999999999994)"><text x="0" y="23.660546874999998" font-family="Helvetica, Segoe UI Emoji" font-size="28px" fill="#1e1e1e" text-anchor="start" style="white-space: pre;" direction="ltr" dominant-baseline="alphabetic">Split learning for vertically partitioned data</text></g></svg>